<svg xmlns="http://www.w3.org/2000/svg" xmlns:xlink="http://www.w3.org/1999/xlink" version="1.1" class="marks" width="704" height="350" viewBox="0 0 704 350"><rect width="704" height="350" fill="#ffffff"/><g fill="none" stroke-miterlimit="10" transform="translate(42,23)"><g class="mark-group role-frame root" role="graphics-object" aria-roledescription="group mark container"><g transform="translate(0,0)"><path class="background" aria-hidden="true" d="M0.5,0.5h602v274h-602Z" stroke="#ddd"/><g><g class="mark-group role-axis" aria-hidden="true"><g transform="translate(0.5,274.5)"><path class="background" aria-hidden="true" d="M0,0h0v0h0Z" pointer-events="none"/><g><g class="mark-rule role-axis-grid" pointer-events="none"><line transform="translate(59,-274)" x2="0" y2="274" stroke="rgba(49, 51, 63, 0.2)" stroke-width="1" opacity="1"/><line transform="translate(119,-274)" x2="0" y2="274" stroke="rgba(49, 51, 63, 0.2)" stroke-width="1" opacity="1"/><line transform="translate(178,-274)" x2="0" y2="274" stroke="rgba(49, 51, 63, 0.2)" stroke-width="1" opacity="1"/><line transform="translate(237,-274)" x2="0" y2="274" stroke="rgba(49, 51, 63, 0.2)" stroke-width="1" opacity="1"/><line transform="translate(296,-274)" x2="0" y2="274" stroke="rgba(49, 51, 63, 0.2)" stroke-width="1" opacity="1"/><line transform="translate(355,-274)" x2="0" y2="274" stroke="rgba(49, 51, 63, 0.2)" stroke-width="1" opacity="1"/><line transform="translate(415,-274)" x2="0" y2="274" stroke="rgba(49, 51, 63, 0.2)" stroke-width="1" opacity="1"/><line transform="translate(474,-274)" x2="0" y2="274" stroke="rgba(49, 51, 63, 0.2)" stroke-width="1" opacity="1"/><line transform="translate(533,-274)" x2="0" y2="274" stroke="rgba(49, 51, 63, 0.2)" stroke-width="1" opacity="1"/><line transform="translate(592,-274)" x2="0" y2="274" stroke="rgba(49, 51, 63, 0.2)" stroke-width="1" opacity="1"/></g></g><path class="foreground" aria-hidden="true" d="" pointer-events="none" display="none"/></g></g><g class="mark-group role-axis" aria-hidden="true"><g transform="translate(0.5,0.5)"><path class="background" aria-hidden="true" d="M0,0h0v0h0Z" pointer-events="none"/><g><g class="mark-rule role-axis-grid" pointer-events="none"><line transform="translate(0,274)" x2="602" y2="0" stroke="rgba(49, 51, 63, 0.2)" stroke-width="1" opacity="1"/><line transform="translate(0,160)" x2="602" y2="0" stroke="rgba(49, 51, 63, 0.2)" stroke-width="1" opacity="1"/><line transform="translate(0,46)" x2="602" y2="0" stroke="rgba(49, 51, 63, 0.2)" stroke-width="1" opacity="1"/><line transform="translate(0,217)" x2="602" y2="0" stroke="rgba(49, 51, 63, 0.2)" stroke-width="1" opacity="1"/><line transform="translate(0,103)" x2="602" y2="0" stroke="rgba(49, 51, 63, 0.2)" stroke-width="1" opacity="1"/></g></g><path class="foreground" aria-hidden="true" d="" pointer-events="none" display="none"/></g></g><g class="mark-group role-axis" role="graphics-symbol" aria-roledescription="axis" aria-label="X-axis titled 'date' for a time scale with values from Saturday, 01 January 2000, 5:30:00 AM to Monday, 01 March 2010, 5:30:00 AM"><g transform="translate(0.5,274.5)"><path class="background" aria-hidden="true" d="M0,0h0v0h0Z" pointer-events="none"/><g><g class="mark-rule role-axis-tick" pointer-events="none"><line transform="translate(59,0)" x2="0" y2="5" stroke="#888" stroke-width="1" opacity="1"/><line transform="translate(119,0)" x2="0" y2="5" stroke="#888" stroke-width="1" opacity="1"/><line transform="translate(178,0)" x2="0" y2="5" stroke="#888" stroke-width="1" opacity="1"/><line transform="translate(237,0)" x2="0" y2="5" stroke="#888" stroke-width="1" opacity="1"/><line transform="translate(296,0)" x2="0" y2="5" stroke="#888" stroke-width="1" opacity="1"/><line transform="translate(355,0)" x2="0" y2="5" stroke="#888" stroke-width="1" opacity="1"/><line transform="translate(415,0)" x2="0" y2="5" stroke="#888" stroke-width="1" opacity="1"/><line transform="translate(474,0)" x2="0" y2="5" stroke="#888" stroke-width="1" opacity="1"/><line transform="translate(533,0)" x2="0" y2="5" stroke="#888" stroke-width="1" opacity="1"/><line transform="translate(592,0)" x2="0" y2="5" stroke="#888" stroke-width="1" opacity="1"/></g><g class="mark-text role-axis-label" pointer-events="none"><text text-anchor="middle" transform="translate(59.31951553520115,16)" font-family="&quot;Source Sans Pro&quot;, sans-serif" font-size="12px" fill="#31333F" opacity="1">2001</text><text text-anchor="middle" transform="translate(118.51401984554599,16)" font-family="&quot;Source Sans Pro&quot;, sans-serif" font-size="12px" fill="#31333F" opacity="1">2002</text><text text-anchor="middle" transform="translate(177.7085241558908,16)" font-family="&quot;Source Sans Pro&quot;, sans-serif" font-size="12px" fill="#31333F" opacity="1">2003</text><text text-anchor="middle" transform="translate(236.90302846623564,16)" font-family="&quot;Source Sans Pro&quot;, sans-serif" font-size="12px" fill="#31333F" opacity="1">2004</text><text text-anchor="middle" transform="translate(296.2597095007184,16)" font-family="&quot;Source Sans Pro&quot;, sans-serif" font-size="12px" fill="#31333F" opacity="1">2005</text><text text-anchor="middle" transform="translate(355.4542138110632,16)" font-family="&quot;Source Sans Pro&quot;, sans-serif" font-size="12px" fill="#31333F" opacity="1">2006</text><text text-anchor="middle" transform="translate(414.6487181214081,16)" font-family="&quot;Source Sans Pro&quot;, sans-serif" font-size="12px" fill="#31333F" opacity="1">2007</text><text text-anchor="middle" transform="translate(473.84322243175285,16)" font-family="&quot;Source Sans Pro&quot;, sans-serif" font-size="12px" fill="#31333F" opacity="1">2008</text><text text-anchor="middle" transform="translate(533.1999034662356,16)" font-family="&quot;Source Sans Pro&quot;, sans-serif" font-size="12px" fill="#31333F" opacity="1">2009</text><text text-anchor="middle" transform="translate(592.3944077765805,16)" font-family="&quot;Source Sans Pro&quot;, sans-serif" font-size="12px" fill="#31333F" opacity="1">2010</text></g><g class="mark-rule role-axis-domain" pointer-events="none"><line transform="translate(0,0)" x2="602" y2="0" stroke="#888" stroke-width="1" opacity="1"/></g><g class="mark-text role-axis-title" pointer-events="none"><text text-anchor="middle" transform="translate(301,31)" font-family="&quot;Source Sans Pro&quot;, sans-serif" font-size="12px" font-weight="bold" fill="#31333F" opacity="1">date</text></g></g><path class="foreground" aria-hidden="true" d="" pointer-events="none" display="none"/></g></g><g class="mark-group role-axis" role="graphics-symbol" aria-roledescription="axis" aria-label="Y-axis titled 'price' for a linear scale with values from 0 to 240"><g transform="translate(0.5,0.5)"><path class="background" aria-hidden="true" d="M0,0h0v0h0Z" pointer-events="none"/><g><g class="mark-rule role-axis-tick" pointer-events="none"><line transform="translate(0,274)" x2="-5" y2="0" stroke="#888" stroke-width="1" opacity="1"/><line transform="translate(0,160)" x2="-5" y2="0" stroke="#888" stroke-width="1" opacity="1"/><line transform="translate(0,46)" x2="-5" y2="0" stroke="#888" stroke-width="1" opacity="1"/><line transform="translate(0,217)" x2="-5" y2="0" stroke="#888" stroke-width="1" opacity="1"/><line transform="translate(0,103)" x2="-5" y2="0" stroke="#888" stroke-width="1" opacity="1"/></g><g class="mark-text role-axis-label" pointer-events="none"><text text-anchor="end" transform="translate(-7,278)" font-family="&quot;Source Sans Pro&quot;, sans-serif" font-size="12px" fill="#31333F" opacity="1">0</text><text text-anchor="end" transform="translate(-7,163.83333333333331)" font-family="&quot;Source Sans Pro&quot;, sans-serif" font-size="12px" fill="#31333F" opacity="1">100</text><text text-anchor="end" transform="translate(-7,49.66666666666666)" font-family="&quot;Source Sans Pro&quot;, sans-serif" font-size="12px" fill="#31333F" opacity="1">200</text><text text-anchor="end" transform="translate(-7,220.91666666666666)" font-family="&quot;Source Sans Pro&quot;, sans-serif" font-size="12px" fill="#31333F" opacity="1">50</text><text text-anchor="end" transform="translate(-7,106.75)" font-family="&quot;Source Sans Pro&quot;, sans-serif" font-size="12px" fill="#31333F" opacity="1">150</text></g><g class="mark-rule role-axis-domain" pointer-events="none"><line transform="translate(0,274)" x2="0" y2="-274" stroke="#888" stroke-width="1" opacity="1"/></g><g class="mark-text role-axis-title" pointer-events="none"><text text-anchor="middle" transform="translate(-28.8919677734375,137) rotate(-90) translate(0,-3)" font-family="&quot;Source Sans Pro&quot;, sans-serif" font-size="12px" font-weight="bold" fill="#31333F" opacity="1">price</text></g></g><path class="foreground" aria-hidden="true" d="" pointer-events="none" display="none"/></g></g><g class="mark-group role-scope layer_0_pathgroup" role="graphics-object" aria-roledescription="group mark container"><g transform="translate(0,0)"><path class="background" aria-hidden="true" d="M0,0h602v274h-602Z"/><g><g class="mark-line role-mark layer_0_marks" clip-path="url(#clip1)" role="graphics-object" aria-roledescription="line mark container"><path aria-label="date: Jan 01, 2000; price: 25.94; symbol: AAPL" role="graphics-symbol" aria-roledescription="line mark" d="M0,244.38516666666666L5.027478448275862,241.27983333333333L9.730603448275863,235.24041666666668L14.758081896551724,238.59691666666666L19.623383620689655,250.025L24.650862068965516,244.09975L29.51616379310345,244.99025L34.54364224137931,239.2134166666667L39.571120689655174,259.29533333333336L44.4364224137931,262.8345L49.46390086206897,264.58125L54.3292025862069,265.506L59.35668103448276,261.65858333333335L64.38415948275862,263.58799999999997L68.92510775862068,261.4074166666667L73.95258620689656,259.4551666666666L78.81788793103448,262.6061666666667L83.84536637931035,260.73383333333334L88.71066810344828,263.2683333333333L93.73814655172413,263.41675L98.765625,265.1406666666667L103.63092672413794,263.9761666666667L108.6584051724138,261.84125L113.52370689655172,261.49875L118.55118534482759,259.889L123.57866379310344,261.61291666666665L128.11961206896552,260.48266666666666L133.14709051724137,260.1401666666667L138.0123922413793,260.69958333333335L143.03987068965517,263.88483333333335L147.9051724137931,265.28908333333334L152.93265086206895,265.5745L157.96012931034483,265.72291666666666L162.82543103448276,264.83241666666663L167.85290948275863,265.15208333333334L172.71821120689657,265.8256666666667L177.7456896551724,265.8028333333333L182.77316810344826,265.42608333333334L187.31411637931035,265.92841666666664L192.3415948275862,265.88275L197.20689655172413,263.74783333333335L202.234375,263.11991666666665L207.09967672413794,261.96683333333334L212.1271551724138,261.08775L217.15463362068965,262.1723333333333L222.0199353448276,260.93933333333337L227.04741379310343,262.0695833333333L231.91271551724137,261.7955833333333L236.94019396551724,261.122L241.9676724137931,260.34566666666666L246.6707974137931,258.56466666666665L251.69827586206895,259.28391666666664L256.56357758620686,257.98241666666667L261.59105603448273,255.42508333333333L266.4563577586207,255.53925L271.48383620689657,254.30625L276.51131465517244,251.8745L281.37661637931035,244.08833333333334L286.4040948275862,235.71991666666668L291.2693965517241,237.23833333333334L296.296875,230.1029166666667L301.3243534482759,222.78483333333335L305.8653017241379,226.42675L310.8927801724138,232.8315L315.75808189655174,228.60733333333334L320.7855603448276,231.97525L325.6508620689655,225.30791666666667L330.6783405172414,220.46725L335.70581896551727,212.79525L340.5711206896552,208.25141666666664L345.598599137931,196.57216666666667L350.463900862069,191.92558333333335L355.4913793103448,187.79274999999998L360.5188577586207,195.80725L365.05980603448273,202.39466666666667L370.0872844827586,193.63808333333333L374.9525862068965,205.7625833333333L379.9800646551724,208.61675L384.84536637931035,196.41233333333335L389.8728448275862,196.53791666666666L394.9003232758621,186.11449999999996L399.765625,181.43366666666668L404.7931034482759,169.35483333333332L409.6584051724138,177.141L414.68588362068965,176.12491666666665L419.7133620689655,177.40358333333333L424.2543103448276,167.92775L429.2817887931035,160.0616666666667L434.1470905172414,135.6414166666667L439.17456896551727,134.671L444.0398706896552,123.57400000000001L449.067349137931,115.90200000000002L454.09482758620686,98.78841666666666L458.9601293103448,57.14041666666669L463.9876077586207,65.9655L468.8529094827586,47.85866666666666L473.8803879310345,119.46399999999998L478.90786637931035,131.26883333333333L483.61099137931035,110.17083333333333L488.6384698275862,75.40708333333335L493.5037715517241,58.51041666666666L498.53125,82.83933333333334L503.3965517241379,92.53208333333335L508.4240301724138,80.45325000000001L513.4515086206897,144.2381666666667L518.3168103448276,151.1680833333333L523.3442887931035,168.20174999999998L528.2095905172414,176.55875L533.2370689655172,171.10158333333334L538.2645474137931,172.03775L542.8054956896551,153.98800000000003L547.832974137931,130.34408333333332L552.698275862069,118.95025L557.7257543103449,111.39241666666668L562.5910560344828,87.46308333333336L567.6185344827586,81.96024999999999L572.6460129310345,62.39208333333335L577.5113146551724,58.795833333333334L582.5387931034483,45.76941666666666L587.4040948275863,33.41658333333335L592.4315732758621,54.7315L597.4590517241379,40.39216666666666L602,19.385499999999993" stroke="#4c78a8" stroke-width="2" stroke-dasharray="1,0"/></g></g><path class="foreground" aria-hidden="true" d="" display="none"/></g></g><g class="mark-symbol role-mark layer_1_marks" clip-path="url(#clip2)" role="graphics-object" aria-roledescription="symbol mark container" pointer-events="none"><path aria-label="date: Sep 01, 2009; price: 185.35; symbol: AAPL" role="graphics-symbol" aria-roledescription="circle" transform="translate(572.6460129310345,62.39208333333335)" d="M4.031128874149275,0A4.031128874149275,4.031128874149275,0,1,1,-4.031128874149275,0A4.031128874149275,4.031128874149275,0,1,1,4.031128874149275,0" fill="#4c78a8" stroke-width="2" stroke-dasharray="1,0" opacity="0.7"/></g><g class="mark-rule role-mark layer_2_marks" clip-path="url(#clip3)" role="graphics-object" aria-roledescription="rule mark container"><line aria-label="date: Jan 01, 2000; price: 25.94; Date: Jan 01, 2000; Price (USD): 25.94" role="graphics-symbol" aria-roledescription="rule mark" transform="translate(0,244.38516666666666)" x2="0" y2="29.614833333333337" stroke="black" opacity="0"/><line aria-label="date: Feb 01, 2000; price: 28.66; Date: Feb 01, 2000; Price (USD): 28.66" role="graphics-symbol" aria-roledescription="rule mark" transform="translate(5.027478448275862,241.27983333333333)" x2="0" y2="32.72016666666667" stroke="black" opacity="0"/><line aria-label="date: Mar 01, 2000; price: 33.95; Date: Mar 01, 2000; Price (USD): 33.95" role="graphics-symbol" aria-roledescription="rule mark" transform="translate(9.730603448275863,235.24041666666668)" x2="0" y2="38.759583333333325" stroke="black" opacity="0"/><line aria-label="date: Apr 01, 2000; price: 31.01; Date: Apr 01, 2000; Price (USD): 31.01" role="graphics-symbol" aria-roledescription="rule mark" transform="translate(14.758081896551724,238.59691666666666)" x2="0" y2="35.40308333333334" stroke="black" opacity="0"/><line aria-label="date: May 01, 2000; price: 21; Date: May 01, 2000; Price (USD): 21" role="graphics-symbol" aria-roledescription="rule mark" transform="translate(19.623383620689655,250.025)" x2="0" y2="23.974999999999994" stroke="black" opacity="0"/><line aria-label="date: Jun 01, 2000; price: 26.19; Date: Jun 01, 2000; Price (USD): 26.19" role="graphics-symbol" aria-roledescription="rule mark" transform="translate(24.650862068965516,244.09975)" x2="0" y2="29.90025" stroke="black" opacity="0"/><line aria-label="date: Jul 01, 2000; price: 25.41; Date: Jul 01, 2000; Price (USD): 25.41" role="graphics-symbol" aria-roledescription="rule mark" transform="translate(29.51616379310345,244.99025)" x2="0" y2="29.009749999999997" stroke="black" opacity="0"/><line aria-label="date: Aug 01, 2000; price: 30.47; Date: Aug 01, 2000; Price (USD): 30.47" role="graphics-symbol" aria-roledescription="rule mark" transform="translate(34.54364224137931,239.2134166666667)" x2="0" y2="34.78658333333331" stroke="black" opacity="0"/><line aria-label="date: Sep 01, 2000; price: 12.88; Date: Sep 01, 2000; Price (USD): 12.88" role="graphics-symbol" aria-roledescription="rule mark" transform="translate(39.571120689655174,259.29533333333336)" x2="0" y2="14.70466666666664" stroke="black" opacity="0"/><line aria-label="date: Oct 01, 2000; price: 9.78; Date: Oct 01, 2000; Price (USD): 9.78" role="graphics-symbol" aria-roledescription="rule mark" transform="translate(44.4364224137931,262.8345)" x2="0" y2="11.165500000000009" stroke="black" opacity="0"/><line aria-label="date: Nov 01, 2000; price: 8.25; Date: Nov 01, 2000; Price (USD): 8.25" role="graphics-symbol" aria-roledescription="rule mark" transform="translate(49.46390086206897,264.58125)" x2="0" y2="9.418749999999989" stroke="black" opacity="0"/><line aria-label="date: Dec 01, 2000; price: 7.44; Date: Dec 01, 2000; Price (USD): 7.44" role="graphics-symbol" aria-roledescription="rule mark" transform="translate(54.3292025862069,265.506)" x2="0" y2="8.494000000000028" stroke="black" opacity="0"/><line aria-label="date: Jan 01, 2001; price: 10.81; Date: Jan 01, 2001; Price (USD): 10.81" role="graphics-symbol" aria-roledescription="rule mark" transform="translate(59.35668103448276,261.65858333333335)" x2="0" y2="12.341416666666646" stroke="black" opacity="0"/><line aria-label="date: Feb 01, 2001; price: 9.12; Date: Feb 01, 2001; Price (USD): 9.12" role="graphics-symbol" aria-roledescription="rule mark" transform="translate(64.38415948275862,263.58799999999997)" x2="0" y2="10.412000000000035" stroke="black" opacity="0"/><line aria-label="date: Mar 01, 2001; price: 11.03; Date: Mar 01, 2001; Price (USD): 11.03" role="graphics-symbol" aria-roledescription="rule mark" transform="translate(68.92510775862068,261.4074166666667)" x2="0" y2="12.592583333333323" stroke="black" opacity="0"/><line aria-label="date: Apr 01, 2001; price: 12.74; Date: Apr 01, 2001; Price (USD): 12.74" role="graphics-symbol" aria-roledescription="rule mark" transform="translate(73.95258620689656,259.4551666666666)" x2="0" y2="14.544833333333372" stroke="black" opacity="0"/><line aria-label="date: May 01, 2001; price: 9.98; Date: May 01, 2001; Price (USD): 9.98" role="graphics-symbol" aria-roledescription="rule mark" transform="translate(78.81788793103448,262.6061666666667)" x2="0" y2="11.393833333333305" stroke="black" opacity="0"/><line aria-label="date: Jun 01, 2001; price: 11.62; Date: Jun 01, 2001; Price (USD): 11.62" role="graphics-symbol" aria-roledescription="rule mark" transform="translate(83.84536637931035,260.73383333333334)" x2="0" y2="13.266166666666663" stroke="black" opacity="0"/><line aria-label="date: Jul 01, 2001; price: 9.4; Date: Jul 01, 2001; Price (USD): 9.4" role="graphics-symbol" aria-roledescription="rule mark" transform="translate(88.71066810344828,263.2683333333333)" x2="0" y2="10.731666666666683" stroke="black" opacity="0"/><line aria-label="date: Aug 01, 2001; price: 9.27; Date: Aug 01, 2001; Price (USD): 9.27" role="graphics-symbol" aria-roledescription="rule mark" transform="translate(93.73814655172413,263.41675)" x2="0" y2="10.583250000000021" stroke="black" opacity="0"/><line aria-label="date: Sep 01, 2001; price: 7.76; Date: Sep 01, 2001; Price (USD): 7.76" role="graphics-symbol" aria-roledescription="rule mark" transform="translate(98.765625,265.1406666666667)" x2="0" y2="8.859333333333325" stroke="black" opacity="0"/><line aria-label="date: Oct 01, 2001; price: 8.78; Date: Oct 01, 2001; Price (USD): 8.78" role="graphics-symbol" aria-roledescription="rule mark" transform="translate(103.63092672413794,263.9761666666667)" x2="0" y2="10.0238333333333" stroke="black" opacity="0"/><line aria-label="date: Nov 01, 2001; price: 10.65; Date: Nov 01, 2001; Price (USD): 10.65" role="graphics-symbol" aria-roledescription="rule mark" transform="translate(108.6584051724138,261.84125)" x2="0" y2="12.158749999999998" stroke="black" opacity="0"/><line aria-label="date: Dec 01, 2001; price: 10.95; Date: Dec 01, 2001; Price (USD): 10.95" role="graphics-symbol" aria-roledescription="rule mark" transform="translate(113.52370689655172,261.49875)" x2="0" y2="12.501250000000027" stroke="black" opacity="0"/><line aria-label="date: Jan 01, 2002; price: 12.36; Date: Jan 01, 2002; Price (USD): 12.36" role="graphics-symbol" aria-roledescription="rule mark" transform="translate(118.55118534482759,259.889)" x2="0" y2="14.11099999999999" stroke="black" opacity="0"/><line aria-label="date: Feb 01, 2002; price: 10.85; Date: Feb 01, 2002; Price (USD): 10.85" role="graphics-symbol" aria-roledescription="rule mark" transform="translate(123.57866379310344,261.61291666666665)" x2="0" y2="12.38708333333335" stroke="black" opacity="0"/><line aria-label="date: Mar 01, 2002; price: 11.84; Date: Mar 01, 2002; Price (USD): 11.84" role="graphics-symbol" aria-roledescription="rule mark" transform="translate(128.11961206896552,260.48266666666666)" x2="0" y2="13.51733333333334" stroke="black" opacity="0"/><line aria-label="date: Apr 01, 2002; price: 12.14; Date: Apr 01, 2002; Price (USD): 12.14" role="graphics-symbol" aria-roledescription="rule mark" transform="translate(133.14709051724137,260.1401666666667)" x2="0" y2="13.859833333333313" stroke="black" opacity="0"/><line aria-label="date: May 01, 2002; price: 11.65; Date: May 01, 2002; Price (USD): 11.65" role="graphics-symbol" aria-roledescription="rule mark" transform="translate(138.0123922413793,260.69958333333335)" x2="0" y2="13.30041666666665" stroke="black" opacity="0"/><line aria-label="date: Jun 01, 2002; price: 8.86; Date: Jun 01, 2002; Price (USD): 8.86" role="graphics-symbol" aria-roledescription="rule mark" transform="translate(143.03987068965517,263.88483333333335)" x2="0" y2="10.115166666666653" stroke="black" opacity="0"/><line aria-label="date: Jul 01, 2002; price: 7.63; Date: Jul 01, 2002; Price (USD): 7.63" role="graphics-symbol" aria-roledescription="rule mark" transform="translate(147.9051724137931,265.28908333333334)" x2="0" y2="8.710916666666662" stroke="black" opacity="0"/><line aria-label="date: Aug 01, 2002; price: 7.38; Date: Aug 01, 2002; Price (USD): 7.38" role="graphics-symbol" aria-roledescription="rule mark" transform="translate(152.93265086206895,265.5745)" x2="0" y2="8.4255" stroke="black" opacity="0"/><line aria-label="date: Sep 01, 2002; price: 7.25; Date: Sep 01, 2002; Price (USD): 7.25" role="graphics-symbol" aria-roledescription="rule mark" transform="translate(157.96012931034483,265.72291666666666)" x2="0" y2="8.277083333333337" stroke="black" opacity="0"/><line aria-label="date: Oct 01, 2002; price: 8.03; Date: Oct 01, 2002; Price (USD): 8.03" role="graphics-symbol" aria-roledescription="rule mark" transform="translate(162.82543103448276,264.83241666666663)" x2="0" y2="9.167583333333369" stroke="black" opacity="0"/><line aria-label="date: Nov 01, 2002; price: 7.75; Date: Nov 01, 2002; Price (USD): 7.75" role="graphics-symbol" aria-roledescription="rule mark" transform="translate(167.85290948275863,265.15208333333334)" x2="0" y2="8.847916666666663" stroke="black" opacity="0"/><line aria-label="date: Dec 01, 2002; price: 7.16; Date: Dec 01, 2002; Price (USD): 7.16" role="graphics-symbol" aria-roledescription="rule mark" transform="translate(172.71821120689657,265.8256666666667)" x2="0" y2="8.174333333333323" stroke="black" opacity="0"/><line aria-label="date: Jan 01, 2003; price: 7.18; Date: Jan 01, 2003; Price (USD): 7.18" role="graphics-symbol" aria-roledescription="rule mark" transform="translate(177.7456896551724,265.8028333333333)" x2="0" y2="8.197166666666703" stroke="black" opacity="0"/><line aria-label="date: Feb 01, 2003; price: 7.51; Date: Feb 01, 2003; Price (USD): 7.51" role="graphics-symbol" aria-roledescription="rule mark" transform="translate(182.77316810344826,265.42608333333334)" x2="0" y2="8.573916666666662" stroke="black" opacity="0"/><line aria-label="date: Mar 01, 2003; price: 7.07; Date: Mar 01, 2003; Price (USD): 7.07" role="graphics-symbol" aria-roledescription="rule mark" transform="translate(187.31411637931035,265.92841666666664)" x2="0" y2="8.071583333333365" stroke="black" opacity="0"/><line aria-label="date: Apr 01, 2003; price: 7.11; Date: Apr 01, 2003; Price (USD): 7.11" role="graphics-symbol" aria-roledescription="rule mark" transform="translate(192.3415948275862,265.88275)" x2="0" y2="8.117250000000013" stroke="black" opacity="0"/><line aria-label="date: May 01, 2003; price: 8.98; Date: May 01, 2003; Price (USD): 8.98" role="graphics-symbol" aria-roledescription="rule mark" transform="translate(197.20689655172413,263.74783333333335)" x2="0" y2="10.252166666666653" stroke="black" opacity="0"/><line aria-label="date: Jun 01, 2003; price: 9.53; Date: Jun 01, 2003; Price (USD): 9.53" role="graphics-symbol" aria-roledescription="rule mark" transform="translate(202.234375,263.11991666666665)" x2="0" y2="10.880083333333346" stroke="black" opacity="0"/><line aria-label="date: Jul 01, 2003; price: 10.54; Date: Jul 01, 2003; Price (USD): 10.54" role="graphics-symbol" aria-roledescription="rule mark" transform="translate(207.09967672413794,261.96683333333334)" x2="0" y2="12.03316666666666" stroke="black" opacity="0"/><line aria-label="date: Aug 01, 2003; price: 11.31; Date: Aug 01, 2003; Price (USD): 11.31" role="graphics-symbol" aria-roledescription="rule mark" transform="translate(212.1271551724138,261.08775)" x2="0" y2="12.912249999999972" stroke="black" opacity="0"/><line aria-label="date: Sep 01, 2003; price: 10.36; Date: Sep 01, 2003; Price (USD): 10.36" role="graphics-symbol" aria-roledescription="rule mark" transform="translate(217.15463362068965,262.1723333333333)" x2="0" y2="11.827666666666687" stroke="black" opacity="0"/><line aria-label="date: Oct 01, 2003; price: 11.44; Date: Oct 01, 2003; Price (USD): 11.44" role="graphics-symbol" aria-roledescription="rule mark" transform="translate(222.0199353448276,260.93933333333337)" x2="0" y2="13.060666666666634" stroke="black" opacity="0"/><line aria-label="date: Nov 01, 2003; price: 10.45; Date: Nov 01, 2003; Price (USD): 10.45" role="graphics-symbol" aria-roledescription="rule mark" transform="translate(227.04741379310343,262.0695833333333)" x2="0" y2="11.930416666666702" stroke="black" opacity="0"/><line aria-label="date: Dec 01, 2003; price: 10.69; Date: Dec 01, 2003; Price (USD): 10.69" role="graphics-symbol" aria-roledescription="rule mark" transform="translate(231.91271551724137,261.7955833333333)" x2="0" y2="12.204416666666702" stroke="black" opacity="0"/><line aria-label="date: Jan 01, 2004; price: 11.28; Date: Jan 01, 2004; Price (USD): 11.28" role="graphics-symbol" aria-roledescription="rule mark" transform="translate(236.94019396551724,261.122)" x2="0" y2="12.877999999999986" stroke="black" opacity="0"/><line aria-label="date: Feb 01, 2004; price: 11.96; Date: Feb 01, 2004; Price (USD): 11.96" role="graphics-symbol" aria-roledescription="rule mark" transform="translate(241.9676724137931,260.34566666666666)" x2="0" y2="13.65433333333334" stroke="black" opacity="0"/><line aria-label="date: Mar 01, 2004; price: 13.52; Date: Mar 01, 2004; Price (USD): 13.52" role="graphics-symbol" aria-roledescription="rule mark" transform="translate(246.6707974137931,258.56466666666665)" x2="0" y2="15.435333333333347" stroke="black" opacity="0"/><line aria-label="date: Apr 01, 2004; price: 12.89; Date: Apr 01, 2004; Price (USD): 12.89" role="graphics-symbol" aria-roledescription="rule mark" transform="translate(251.69827586206895,259.28391666666664)" x2="0" y2="14.716083333333358" stroke="black" opacity="0"/><line aria-label="date: May 01, 2004; price: 14.03; Date: May 01, 2004; Price (USD): 14.03" role="graphics-symbol" aria-roledescription="rule mark" transform="translate(256.56357758620686,257.98241666666667)" x2="0" y2="16.017583333333334" stroke="black" opacity="0"/><line aria-label="date: Jun 01, 2004; price: 16.27; Date: Jun 01, 2004; Price (USD): 16.27" role="graphics-symbol" aria-roledescription="rule mark" transform="translate(261.59105603448273,255.42508333333333)" x2="0" y2="18.574916666666667" stroke="black" opacity="0"/><line aria-label="date: Jul 01, 2004; price: 16.17; Date: Jul 01, 2004; Price (USD): 16.17" role="graphics-symbol" aria-roledescription="rule mark" transform="translate(266.4563577586207,255.53925)" x2="0" y2="18.46074999999999" stroke="black" opacity="0"/><line aria-label="date: Aug 01, 2004; price: 17.25; Date: Aug 01, 2004; Price (USD): 17.25" role="graphics-symbol" aria-roledescription="rule mark" transform="translate(271.48383620689657,254.30625)" x2="0" y2="19.693749999999994" stroke="black" opacity="0"/><line aria-label="date: Sep 01, 2004; price: 19.38; Date: Sep 01, 2004; Price (USD): 19.38" role="graphics-symbol" aria-roledescription="rule mark" transform="translate(276.51131465517244,251.8745)" x2="0" y2="22.125499999999988" stroke="black" opacity="0"/><line aria-label="date: Oct 01, 2004; price: 26.2; Date: Oct 01, 2004; Price (USD): 26.2" role="graphics-symbol" aria-roledescription="rule mark" transform="translate(281.37661637931035,244.08833333333334)" x2="0" y2="29.91166666666666" stroke="black" opacity="0"/><line aria-label="date: Nov 01, 2004; price: 33.53; Date: Nov 01, 2004; Price (USD): 33.53" role="graphics-symbol" aria-roledescription="rule mark" transform="translate(286.4040948275862,235.71991666666668)" x2="0" y2="38.28008333333332" stroke="black" opacity="0"/><line aria-label="date: Dec 01, 2004; price: 32.2; Date: Dec 01, 2004; Price (USD): 32.2" role="graphics-symbol" aria-roledescription="rule mark" transform="translate(291.2693965517241,237.23833333333334)" x2="0" y2="36.761666666666656" stroke="black" opacity="0"/><line aria-label="date: Jan 01, 2005; price: 38.45; Date: Jan 01, 2005; Price (USD): 38.45" role="graphics-symbol" aria-roledescription="rule mark" transform="translate(296.296875,230.1029166666667)" x2="0" y2="43.89708333333331" stroke="black" opacity="0"/><line aria-label="date: Feb 01, 2005; price: 44.86; Date: Feb 01, 2005; Price (USD): 44.86" role="graphics-symbol" aria-roledescription="rule mark" transform="translate(301.3243534482759,222.78483333333335)" x2="0" y2="51.21516666666665" stroke="black" opacity="0"/><line aria-label="date: Mar 01, 2005; price: 41.67; Date: Mar 01, 2005; Price (USD): 41.67" role="graphics-symbol" aria-roledescription="rule mark" transform="translate(305.8653017241379,226.42675)" x2="0" y2="47.57325" stroke="black" opacity="0"/><line aria-label="date: Apr 01, 2005; price: 36.06; Date: Apr 01, 2005; Price (USD): 36.06" role="graphics-symbol" aria-roledescription="rule mark" transform="translate(310.8927801724138,232.8315)" x2="0" y2="41.168499999999995" stroke="black" opacity="0"/><line aria-label="date: May 01, 2005; price: 39.76; Date: May 01, 2005; Price (USD): 39.76" role="graphics-symbol" aria-roledescription="rule mark" transform="translate(315.75808189655174,228.60733333333334)" x2="0" y2="45.392666666666656" stroke="black" opacity="0"/><line aria-label="date: Jun 01, 2005; price: 36.81; Date: Jun 01, 2005; Price (USD): 36.81" role="graphics-symbol" aria-roledescription="rule mark" transform="translate(320.7855603448276,231.97525)" x2="0" y2="42.02475000000001" stroke="black" opacity="0"/><line aria-label="date: Jul 01, 2005; price: 42.65; Date: Jul 01, 2005; Price (USD): 42.65" role="graphics-symbol" aria-roledescription="rule mark" transform="translate(325.6508620689655,225.30791666666667)" x2="0" y2="48.69208333333333" stroke="black" opacity="0"/><line aria-label="date: Aug 01, 2005; price: 46.89; Date: Aug 01, 2005; Price (USD): 46.89" role="graphics-symbol" aria-roledescription="rule mark" transform="translate(330.6783405172414,220.46725)" x2="0" y2="53.53274999999999" stroke="black" opacity="0"/><line aria-label="date: Sep 01, 2005; price: 53.61; Date: Sep 01, 2005; Price (USD): 53.61" role="graphics-symbol" aria-roledescription="rule mark" transform="translate(335.70581896551727,212.79525)" x2="0" y2="61.20474999999999" stroke="black" opacity="0"/><line aria-label="date: Oct 01, 2005; price: 57.59; Date: Oct 01, 2005; Price (USD): 57.59" role="graphics-symbol" aria-roledescription="rule mark" transform="translate(340.5711206896552,208.25141666666664)" x2="0" y2="65.74858333333336" stroke="black" opacity="0"/><line aria-label="date: Nov 01, 2005; price: 67.82; Date: Nov 01, 2005; Price (USD): 67.82" role="graphics-symbol" aria-roledescription="rule mark" transform="translate(345.598599137931,196.57216666666667)" x2="0" y2="77.42783333333333" stroke="black" opacity="0"/><line aria-label="date: Dec 01, 2005; price: 71.89; Date: Dec 01, 2005; Price (USD): 71.89" role="graphics-symbol" aria-roledescription="rule mark" transform="translate(350.463900862069,191.92558333333335)" x2="0" y2="82.07441666666665" stroke="black" opacity="0"/><line aria-label="date: Jan 01, 2006; price: 75.51; Date: Jan 01, 2006; Price (USD): 75.51" role="graphics-symbol" aria-roledescription="rule mark" transform="translate(355.4913793103448,187.79274999999998)" x2="0" y2="86.20725000000002" stroke="black" opacity="0"/><line aria-label="date: Feb 01, 2006; price: 68.49; Date: Feb 01, 2006; Price (USD): 68.49" role="graphics-symbol" aria-roledescription="rule mark" transform="translate(360.5188577586207,195.80725)" x2="0" y2="78.19274999999999" stroke="black" opacity="0"/><line aria-label="date: Mar 01, 2006; price: 62.72; Date: Mar 01, 2006; Price (USD): 62.72" role="graphics-symbol" aria-roledescription="rule mark" transform="translate(365.05980603448273,202.39466666666667)" x2="0" y2="71.60533333333333" stroke="black" opacity="0"/><line aria-label="date: Apr 01, 2006; price: 70.39; Date: Apr 01, 2006; Price (USD): 70.39" role="graphics-symbol" aria-roledescription="rule mark" transform="translate(370.0872844827586,193.63808333333333)" x2="0" y2="80.36191666666667" stroke="black" opacity="0"/><line aria-label="date: May 01, 2006; price: 59.77; Date: May 01, 2006; Price (USD): 59.77" role="graphics-symbol" aria-roledescription="rule mark" transform="translate(374.9525862068965,205.7625833333333)" x2="0" y2="68.23741666666669" stroke="black" opacity="0"/><line aria-label="date: Jun 01, 2006; price: 57.27; Date: Jun 01, 2006; Price (USD): 57.27" role="graphics-symbol" aria-roledescription="rule mark" transform="translate(379.9800646551724,208.61675)" x2="0" y2="65.38325" stroke="black" opacity="0"/><line aria-label="date: Jul 01, 2006; price: 67.96; Date: Jul 01, 2006; Price (USD): 67.96" role="graphics-symbol" aria-roledescription="rule mark" transform="translate(384.84536637931035,196.41233333333335)" x2="0" y2="77.58766666666665" stroke="black" opacity="0"/><line aria-label="date: Aug 01, 2006; price: 67.85; Date: Aug 01, 2006; Price (USD): 67.85" role="graphics-symbol" aria-roledescription="rule mark" transform="translate(389.8728448275862,196.53791666666666)" x2="0" y2="77.46208333333334" stroke="black" opacity="0"/><line aria-label="date: Sep 01, 2006; price: 76.98; Date: Sep 01, 2006; Price (USD): 76.98" role="graphics-symbol" aria-roledescription="rule mark" transform="translate(394.9003232758621,186.11449999999996)" x2="0" y2="87.88550000000004" stroke="black" opacity="0"/><line aria-label="date: Oct 01, 2006; price: 81.08; Date: Oct 01, 2006; Price (USD): 81.08" role="graphics-symbol" aria-roledescription="rule mark" transform="translate(399.765625,181.43366666666668)" x2="0" y2="92.56633333333332" stroke="black" opacity="0"/><line aria-label="date: Nov 01, 2006; price: 91.66; Date: Nov 01, 2006; Price (USD): 91.66" role="graphics-symbol" aria-roledescription="rule mark" transform="translate(404.7931034482759,169.35483333333332)" x2="0" y2="104.64516666666668" stroke="black" opacity="0"/><line aria-label="date: Dec 01, 2006; price: 84.84; Date: Dec 01, 2006; Price (USD): 84.84" role="graphics-symbol" aria-roledescription="rule mark" transform="translate(409.6584051724138,177.141)" x2="0" y2="96.85900000000001" stroke="black" opacity="0"/><line aria-label="date: Jan 01, 2007; price: 85.73; Date: Jan 01, 2007; Price (USD): 85.73" role="graphics-symbol" aria-roledescription="rule mark" transform="translate(414.68588362068965,176.12491666666665)" x2="0" y2="97.87508333333335" stroke="black" opacity="0"/><line aria-label="date: Feb 01, 2007; price: 84.61; Date: Feb 01, 2007; Price (USD): 84.61" role="graphics-symbol" aria-roledescription="rule mark" transform="translate(419.7133620689655,177.40358333333333)" x2="0" y2="96.59641666666667" stroke="black" opacity="0"/><line aria-label="date: Mar 01, 2007; price: 92.91; Date: Mar 01, 2007; Price (USD): 92.91" role="graphics-symbol" aria-roledescription="rule mark" transform="translate(424.2543103448276,167.92775)" x2="0" y2="106.07225" stroke="black" opacity="0"/><line aria-label="date: Apr 01, 2007; price: 99.8; Date: Apr 01, 2007; Price (USD): 99.8" role="graphics-symbol" aria-roledescription="rule mark" transform="translate(429.2817887931035,160.0616666666667)" x2="0" y2="113.9383333333333" stroke="black" opacity="0"/><line aria-label="date: May 01, 2007; price: 121.19; Date: May 01, 2007; Price (USD): 121.19" role="graphics-symbol" aria-roledescription="rule mark" transform="translate(434.1470905172414,135.6414166666667)" x2="0" y2="138.3585833333333" stroke="black" opacity="0"/><line aria-label="date: Jun 01, 2007; price: 122.04; Date: Jun 01, 2007; Price (USD): 122.04" role="graphics-symbol" aria-roledescription="rule mark" transform="translate(439.17456896551727,134.671)" x2="0" y2="139.329" stroke="black" opacity="0"/><line aria-label="date: Jul 01, 2007; price: 131.76; Date: Jul 01, 2007; Price (USD): 131.76" role="graphics-symbol" aria-roledescription="rule mark" transform="translate(444.0398706896552,123.57400000000001)" x2="0" y2="150.426" stroke="black" opacity="0"/><line aria-label="date: Aug 01, 2007; price: 138.48; Date: Aug 01, 2007; Price (USD): 138.48" role="graphics-symbol" aria-roledescription="rule mark" transform="translate(449.067349137931,115.90200000000002)" x2="0" y2="158.09799999999998" stroke="black" opacity="0"/><line aria-label="date: Sep 01, 2007; price: 153.47; Date: Sep 01, 2007; Price (USD): 153.47" role="graphics-symbol" aria-roledescription="rule mark" transform="translate(454.09482758620686,98.78841666666666)" x2="0" y2="175.21158333333335" stroke="black" opacity="0"/><line aria-label="date: Oct 01, 2007; price: 189.95; Date: Oct 01, 2007; Price (USD): 189.95" role="graphics-symbol" aria-roledescription="rule mark" transform="translate(458.9601293103448,57.14041666666669)" x2="0" y2="216.85958333333332" stroke="black" opacity="0"/><line aria-label="date: Nov 01, 2007; price: 182.22; Date: Nov 01, 2007; Price (USD): 182.22" role="graphics-symbol" aria-roledescription="rule mark" transform="translate(463.9876077586207,65.9655)" x2="0" y2="208.03449999999998" stroke="black" opacity="0"/><line aria-label="date: Dec 01, 2007; price: 198.08; Date: Dec 01, 2007; Price (USD): 198.08" role="graphics-symbol" aria-roledescription="rule mark" transform="translate(468.8529094827586,47.85866666666666)" x2="0" y2="226.14133333333334" stroke="black" opacity="0"/><line aria-label="date: Jan 01, 2008; price: 135.36; Date: Jan 01, 2008; Price (USD): 135.36" role="graphics-symbol" aria-roledescription="rule mark" transform="translate(473.8803879310345,119.46399999999998)" x2="0" y2="154.536" stroke="black" opacity="0"/><line aria-label="date: Feb 01, 2008; price: 125.02; Date: Feb 01, 2008; Price (USD): 125.02" role="graphics-symbol" aria-roledescription="rule mark" transform="translate(478.90786637931035,131.26883333333333)" x2="0" y2="142.73116666666667" stroke="black" opacity="0"/><line aria-label="date: Mar 01, 2008; price: 143.5; Date: Mar 01, 2008; Price (USD): 143.5" role="graphics-symbol" aria-roledescription="rule mark" transform="translate(483.61099137931035,110.17083333333333)" x2="0" y2="163.82916666666665" stroke="black" opacity="0"/><line aria-label="date: Apr 01, 2008; price: 173.95; Date: Apr 01, 2008; Price (USD): 173.95" role="graphics-symbol" aria-roledescription="rule mark" transform="translate(488.6384698275862,75.40708333333335)" x2="0" y2="198.59291666666667" stroke="black" opacity="0"/><line aria-label="date: May 01, 2008; price: 188.75; Date: May 01, 2008; Price (USD): 188.75" role="graphics-symbol" aria-roledescription="rule mark" transform="translate(493.5037715517241,58.51041666666666)" x2="0" y2="215.48958333333334" stroke="black" opacity="0"/><line aria-label="date: Jun 01, 2008; price: 167.44; Date: Jun 01, 2008; Price (USD): 167.44" role="graphics-symbol" aria-roledescription="rule mark" transform="translate(498.53125,82.83933333333334)" x2="0" y2="191.16066666666666" stroke="black" opacity="0"/><line aria-label="date: Jul 01, 2008; price: 158.95; Date: Jul 01, 2008; Price (USD): 158.95" role="graphics-symbol" aria-roledescription="rule mark" transform="translate(503.3965517241379,92.53208333333335)" x2="0" y2="181.46791666666667" stroke="black" opacity="0"/><line aria-label="date: Aug 01, 2008; price: 169.53; Date: Aug 01, 2008; Price (USD): 169.53" role="graphics-symbol" aria-roledescription="rule mark" transform="translate(508.4240301724138,80.45325000000001)" x2="0" y2="193.54674999999997" stroke="black" opacity="0"/><line aria-label="date: Sep 01, 2008; price: 113.66; Date: Sep 01, 2008; Price (USD): 113.66" role="graphics-symbol" aria-roledescription="rule mark" transform="translate(513.4515086206897,144.2381666666667)" x2="0" y2="129.7618333333333" stroke="black" opacity="0"/><line aria-label="date: Oct 01, 2008; price: 107.59; Date: Oct 01, 2008; Price (USD): 107.59" role="graphics-symbol" aria-roledescription="rule mark" transform="translate(518.3168103448276,151.1680833333333)" x2="0" y2="122.8319166666667" stroke="black" opacity="0"/><line aria-label="date: Nov 01, 2008; price: 92.67; Date: Nov 01, 2008; Price (USD): 92.67" role="graphics-symbol" aria-roledescription="rule mark" transform="translate(523.3442887931035,168.20174999999998)" x2="0" y2="105.79825000000002" stroke="black" opacity="0"/><line aria-label="date: Dec 01, 2008; price: 85.35; Date: Dec 01, 2008; Price (USD): 85.35" role="graphics-symbol" aria-roledescription="rule mark" transform="translate(528.2095905172414,176.55875)" x2="0" y2="97.44125" stroke="black" opacity="0"/><line aria-label="date: Jan 01, 2009; price: 90.13; Date: Jan 01, 2009; Price (USD): 90.13" role="graphics-symbol" aria-roledescription="rule mark" transform="translate(533.2370689655172,171.10158333333334)" x2="0" y2="102.89841666666666" stroke="black" opacity="0"/><line aria-label="date: Feb 01, 2009; price: 89.31; Date: Feb 01, 2009; Price (USD): 89.31" role="graphics-symbol" aria-roledescription="rule mark" transform="translate(538.2645474137931,172.03775)" x2="0" y2="101.96225000000001" stroke="black" opacity="0"/><line aria-label="date: Mar 01, 2009; price: 105.12; Date: Mar 01, 2009; Price (USD): 105.12" role="graphics-symbol" aria-roledescription="rule mark" transform="translate(542.8054956896551,153.98800000000003)" x2="0" y2="120.01199999999997" stroke="black" opacity="0"/><line aria-label="date: Apr 01, 2009; price: 125.83; Date: Apr 01, 2009; Price (USD): 125.83" role="graphics-symbol" aria-roledescription="rule mark" transform="translate(547.832974137931,130.34408333333332)" x2="0" y2="143.65591666666668" stroke="black" opacity="0"/><line aria-label="date: May 01, 2009; price: 135.81; Date: May 01, 2009; Price (USD): 135.81" role="graphics-symbol" aria-roledescription="rule mark" transform="translate(552.698275862069,118.95025)" x2="0" y2="155.04975000000002" stroke="black" opacity="0"/><line aria-label="date: Jun 01, 2009; price: 142.43; Date: Jun 01, 2009; Price (USD): 142.43" role="graphics-symbol" aria-roledescription="rule mark" transform="translate(557.7257543103449,111.39241666666668)" x2="0" y2="162.6075833333333" stroke="black" opacity="0"/><line aria-label="date: Jul 01, 2009; price: 163.39; Date: Jul 01, 2009; Price (USD): 163.39" role="graphics-symbol" aria-roledescription="rule mark" transform="translate(562.5910560344828,87.46308333333336)" x2="0" y2="186.53691666666663" stroke="black" opacity="0"/><line aria-label="date: Aug 01, 2009; price: 168.21; Date: Aug 01, 2009; Price (USD): 168.21" role="graphics-symbol" aria-roledescription="rule mark" transform="translate(567.6185344827586,81.96024999999999)" x2="0" y2="192.03975000000003" stroke="black" opacity="0"/><line aria-label="date: Sep 01, 2009; price: 185.35; Date: Sep 01, 2009; Price (USD): 185.35" role="graphics-symbol" aria-roledescription="rule mark" transform="translate(572.6460129310345,62.39208333333335)" x2="0" y2="211.60791666666665" stroke="black" opacity="0.3"/><line aria-label="date: Oct 01, 2009; price: 188.5; Date: Oct 01, 2009; Price (USD): 188.5" role="graphics-symbol" aria-roledescription="rule mark" transform="translate(577.5113146551724,58.795833333333334)" x2="0" y2="215.20416666666665" stroke="black" opacity="0"/><line aria-label="date: Nov 01, 2009; price: 199.91; Date: Nov 01, 2009; Price (USD): 199.91" role="graphics-symbol" aria-roledescription="rule mark" transform="translate(582.5387931034483,45.76941666666666)" x2="0" y2="228.23058333333336" stroke="black" opacity="0"/><line aria-label="date: Dec 01, 2009; price: 210.73; Date: Dec 01, 2009; Price (USD): 210.73" role="graphics-symbol" aria-roledescription="rule mark" transform="translate(587.4040948275863,33.41658333333335)" x2="0" y2="240.58341666666666" stroke="black" opacity="0"/><line aria-label="date: Jan 01, 2010; price: 192.06; Date: Jan 01, 2010; Price (USD): 192.06" role="graphics-symbol" aria-roledescription="rule mark" transform="translate(592.4315732758621,54.7315)" x2="0" y2="219.26850000000002" stroke="black" opacity="0"/><line aria-label="date: Feb 01, 2010; price: 204.62; Date: Feb 01, 2010; Price (USD): 204.62" role="graphics-symbol" aria-roledescription="rule mark" transform="translate(597.4590517241379,40.39216666666666)" x2="0" y2="233.60783333333333" stroke="black" opacity="0"/><line aria-label="date: Mar 01, 2010; price: 223.02; Date: Mar 01, 2010; Price (USD): 223.02" role="graphics-symbol" aria-roledescription="rule mark" transform="translate(602,19.385499999999993)" x2="0" y2="254.61450000000002" stroke="black" opacity="0"/></g><g class="mark-path role-mark layer_2_voronoi" role="graphics-symbol" aria-roledescription="path mark container"><path transform="translate(0,0)" d="M0,238.76280170439915L8.351889121857742,252.2843589916027L2.1107332447065525,274L0,274Z" stroke-width="0.35"/><path transform="translate(0,0)" d="M11.738396017718397,246.63219301218084L8.351889121857742,252.2843589916027L0,238.76280170439915L0,232.51378327938238L9.990842522562694,240.29403488849383Z" stroke-width="0.35"/><path transform="translate(0,0)" d="M60.12128704879561,0L25.323162880745798,217.32877042764855L9.990842522562694,240.29403488849383L0,232.51378327938238L0,0Z" stroke-width="0.35"/><path transform="translate(0,0)" d="M25.323162880745798,217.32877042764855L24.863739857767857,232.0732018062904L18.325167738057715,243.82799296631694L11.738396017718397,246.63219301218084L9.990842522562694,240.29403488849383Z" stroke-width="0.35"/><path transform="translate(0,0)" d="M28.935080386823856,256.08501600644325L20.609430579659275,274L2.1107332447065525,274L8.351889121857742,252.2843589916027L11.738396017718397,246.63219301218084L18.325167738057715,243.82799296631694L26.019783796403026,250.3567497953264Z" stroke-width="0.35"/><path transform="translate(0,0)" d="M28.148888736073793,238.7242535192447L26.019783796403026,250.3567497953264L18.325167738057715,243.82799296631694L24.863739857767857,232.0732018062904Z" stroke-width="0.35"/><path transform="translate(0,0)" d="M39.53563980731006,248.63394665098173L28.935080386823856,256.08501600644325L26.019783796403026,250.3567497953264L28.148888736073793,238.7242535192447Z" stroke-width="0.35"/><path transform="translate(0,0)" d="M136.83462680956114,0L129.7489588259323,33.386517090502565L98.74121025935145,159.3749708260891L89.04656413101907,181.58470665217226L62.5271715709699,233.21568003137793L51.2281005900592,245.706756205552L39.53563980731006,248.63394665098173L28.148888736073793,238.7242535192447L24.863739857767857,232.0732018062904L25.323162880745798,217.32877042764855L60.12128704879561,0Z" stroke-width="0.35"/><path transform="translate(0,0)" d="M50.84546982657827,248.91021079589987L32.59440326182637,274L20.609430579659275,274L28.935080386823856,256.08501600644325L39.53563980731006,248.63394665098173L51.2281005900592,245.706756205552Z" stroke-width="0.35"/><path transform="translate(0,0)" d="M32.59440326182637,274L50.84546982657827,248.91021079589987L51.07585261858137,251.83335232104454L43.374259815832616,274Z" stroke-width="0.35"/><path transform="translate(0,0)" d="M43.374259815832616,274L51.07585261858137,251.83335232104454L53.10315193591965,258.6954508007818L50.19420965968618,274Z" stroke-width="0.35"/><path transform="translate(0,0)" d="M50.19420965968618,274L53.10315193591965,258.6954508007818L59.94616499281576,267.6373210595657L61.159856740409246,274Z" stroke-width="0.35"/><path transform="translate(0,0)" d="M50.84546982657827,248.91021079589987L51.2281005900592,245.706756205552L62.5271715709699,233.21568003137793L63.580782703184994,240.19502642875045L64.02232714447037,257.0160707494779L59.94616499281576,267.6373210595657L53.10315193591965,258.6954508007818L51.07585261858137,251.83335232104454Z" stroke-width="0.35"/><path transform="translate(0,0)" d="M61.159856740409246,274L59.94616499281576,267.6373210595657L64.02232714447037,257.0160707494779L72.178084666542,274Z" stroke-width="0.35"/><path transform="translate(0,0)" d="M63.580782703184994,240.19502642875045L73.43843512483622,265.58067637135247L72.41823008399392,274L72.178084666542,274L64.02232714447037,257.0160707494779Z" stroke-width="0.35"/><path transform="translate(0,0)" d="M89.04656413101907,181.58470665217226L79.37456073589945,256.41500129353443L73.43843512483622,265.58067637135247L63.580782703184994,240.19502642875045L62.5271715709699,233.21568003137793Z" stroke-width="0.35"/><path transform="translate(0,0)" d="M79.37456073589945,256.41500129353443L83.46557088338531,267.3999391686436L83.02380019766008,274L72.41823008399392,274L73.43843512483622,265.58067637135247Z" stroke-width="0.35"/><path transform="translate(0,0)" d="M91.56353678017415,251.85484252644304L83.46557088338531,267.3999391686436L79.37456073589945,256.41500129353443L89.04656413101907,181.58470665217226L98.74121025935145,159.3749708260891L99.46792090670382,189.22830067496537L97.67932744213343,229.3039473193868Z" stroke-width="0.35"/><path transform="translate(0,0)" d="M91.56353678017415,251.85484252644304L90.90978749236551,274L83.02380019766008,274L83.46557088338531,267.3999391686436Z" stroke-width="0.35"/><path transform="translate(0,0)" d="M90.90978749236551,274L91.56353678017415,251.85484252644304L97.67932744213343,229.3039473193868L99.6005252525012,247.49802424238916L99.12550439099505,255.8983405722398L92.9184658720051,274Z" stroke-width="0.35"/><path transform="translate(0,0)" d="M92.9184658720051,274L99.12550439099505,255.8983405722398L103.45809948968059,274Z" stroke-width="0.35"/><path transform="translate(0,0)" d="M103.45809948968059,274L99.12550439099505,255.8983405722398L99.6005252525012,247.49802424238916L110.8545784178457,274Z" stroke-width="0.35"/><path transform="translate(0,0)" d="M109.60899228780792,240.61689838838325L111.95904434013067,274L110.8545784178457,274L99.6005252525012,247.49802424238916L97.67932744213343,229.3039473193868L99.46792090670382,189.22830067496537Z" stroke-width="0.35"/><path transform="translate(0,0)" d="M111.95904434013067,274L109.60899228780792,240.61689838838325L118.47455012228993,268.3052977950008L118.40989095218178,274Z" stroke-width="0.35"/><path transform="translate(0,0)" d="M126.8098245493627,204.18675009567562L123.79416666436043,252.79163751462087L118.47455012228993,268.3052977950008L109.60899228780792,240.61689838838325L99.46792090670382,189.22830067496537L98.74121025935145,159.3749708260891L129.7489588259323,33.386517090502565Z" stroke-width="0.35"/><path transform="translate(0,0)" d="M123.79416666436043,252.79163751462087L129.07296532994286,274L118.40989095218178,274L118.47455012228993,268.3052977950008Z" stroke-width="0.35"/><path transform="translate(0,0)" d="M126.8098245493627,204.18675009567562L131.5658942845655,274L129.07296532994286,274L123.79416666436043,252.79163751462087Z" stroke-width="0.35"/><path transform="translate(0,0)" d="M163.60235907864922,0L164.86792240603938,5.69768644726426L134.2200155975953,272.2455437444653L133.55590967956977,274L131.5658942845655,274L126.8098245493627,204.18675009567562L129.7489588259323,33.386517090502565L136.83462680956114,0Z" stroke-width="0.35"/><path transform="translate(0,0)" d="M176.07113184919393,69.69893590128433L175.2732002158243,113.20016277238489L174.7809262363562,116.499367752014L155.43646244500192,232.64122293288233L151.61678682391698,244.33179161550547L150.8278499277414,246.0323645066203L134.2200155975953,272.2455437444653L164.86792240603938,5.69768644726426L176.15177579126114,54.30115149217801Z" stroke-width="0.35"/><path transform="translate(0,0)" d="M150.8278499277414,246.0323645066203L142.75567797040264,274L133.55590967956977,274L134.2200155975953,272.2455437444653Z" stroke-width="0.35"/><path transform="translate(0,0)" d="M142.75567797040264,274L150.8278499277414,246.0323645066203L151.61678682391698,244.33179161550547L149.93248300636836,274Z" stroke-width="0.35"/><path transform="translate(0,0)" d="M156.1428209381784,242.0577520233868L155.1998508152225,274L149.93248300636836,274L151.61678682391698,244.33179161550547L155.43646244500192,232.64122293288233Z" stroke-width="0.35"/><path transform="translate(0,0)" d="M155.1998508152225,274L156.1428209381784,242.0577520233868L161.98923570050542,274Z" stroke-width="0.35"/><path transform="translate(0,0)" d="M174.7809262363562,116.499367752014L164.7664224196609,274L161.98923570050542,274L156.1428209381784,242.0577520233868L155.43646244500192,232.64122293288233Z" stroke-width="0.35"/><path transform="translate(0,0)" d="M176.2818147900744,212.53584092339514L175.07340822652753,230.90618359273356L169.10722603526688,274L164.7664224196609,274L174.7809262363562,116.499367752014L175.2732002158243,113.20016277238489L175.32469813024164,113.83468962602413L177.3260935210894,155.67121048971146Z" stroke-width="0.35"/><path transform="translate(0,0)" d="M169.10722603526688,274L175.07340822652753,230.90618359273356L175.26912770792524,274Z" stroke-width="0.35"/><path transform="translate(0,0)" d="M176.2818147900744,212.53584092339514L180.88782596851115,274L175.26912770792524,274L175.07340822652753,230.90618359273356Z" stroke-width="0.35"/><path transform="translate(0,0)" d="M180.88782596851115,274L176.2818147900744,212.53584092339514L177.3260935210894,155.67121048971146L187.51706104674363,243.31825824212714L184.12295464574578,274Z" stroke-width="0.35"/><path transform="translate(0,0)" d="M184.12295464574578,274L187.51706104674363,243.31825824212714L189.71318626978257,253.28154821619432L189.90138053877732,274Z" stroke-width="0.35"/><path transform="translate(0,0)" d="M189.90138053877732,274L189.71318626978257,253.28154821619432L198.80453774780693,274Z" stroke-width="0.35"/><path transform="translate(0,0)" d="M193.97466972028403,217.42821526445843L201.04031244038538,274L198.80453774780693,274L189.71318626978257,253.28154821619432L187.51706104674363,243.31825824212714L177.3260935210894,155.67121048971146L175.32469813024164,113.83468962602413Z" stroke-width="0.35"/><path transform="translate(0,0)" d="M201.04031244038538,274L193.97466972028403,217.42821526445843L207.38226205763922,274Z" stroke-width="0.35"/><path transform="translate(0,0)" d="M176.07113184919393,69.69893590128433L211.79434026852255,274L207.38226205763922,274L193.97466972028403,217.42821526445843L175.32469813024164,113.83468962602413L175.2732002158243,113.20016277238489Z" stroke-width="0.35"/><path transform="translate(0,0)" d="M216.92401960203148,251.0468412684198L211.9723099798524,274L211.79434026852255,274L176.07113184919393,69.69893590128433L176.15177579126114,54.30115149217801L209.4833124009876,131.9213417688173L215.39659112667158,149.23540408153005Z" stroke-width="0.35"/><path transform="translate(0,0)" d="M211.9723099798524,274L216.92401960203148,251.0468412684198L222.20232802970452,271.8745485625727L222.2244037385942,274Z" stroke-width="0.35"/><path transform="translate(0,0)" d="M216.92401960203148,251.0468412684198L215.39659112667158,149.23540408153005L226.406855708575,177.34416806121385L230.04256368432587,215.0856065086889L229.88940948214108,227.59527971366785L228.4699076117276,243.99565338763216L222.20232802970452,271.8745485625727Z" stroke-width="0.35"/><path transform="translate(0,0)" d="M228.4699076117276,243.99565338763216L230.15966735077964,274L222.2244037385942,274L222.20232802970452,271.8745485625727Z" stroke-width="0.35"/><path transform="translate(0,0)" d="M230.15966735077964,274L228.4699076117276,243.99565338763216L229.88940948214108,227.59527971366785L236.10673025128045,274Z" stroke-width="0.35"/><path transform="translate(0,0)" d="M236.10673025128045,274L229.88940948214108,227.59527971366785L230.04256368432587,215.0856065086889L235.77053958255703,236.88044306772247L241.50246855282936,274Z" stroke-width="0.35"/><path transform="translate(0,0)" d="M241.50246855282936,274L235.77053958255703,236.88044306772247L247.79534325634094,268.63460071975214L248.38078615472693,274Z" stroke-width="0.35"/><path transform="translate(0,0)" d="M250.93524946607653,246.6870014162367L247.79534325634094,268.63460071975214L235.77053958255703,236.88044306772247L230.04256368432587,215.0856065086889L226.406855708575,177.34416806121385L243.6992603502777,207.4204112518126L250.5365862247664,239.9134714735952Z" stroke-width="0.35"/><path transform="translate(0,0)" d="M248.38078615472693,274L247.79534325634094,268.63460071975214L250.93524946607653,246.6870014162367L258.241655044256,274Z" stroke-width="0.35"/><path transform="translate(0,0)" d="M258.241655044256,274L250.93524946607653,246.6870014162367L250.5365862247664,239.9134714735952L263.77818626566295,265.94522023257446L265.76743186620615,274Z" stroke-width="0.35"/><path transform="translate(0,0)" d="M264.44626942126496,237.47433443271203L263.77818626566295,265.94522023257446L250.5365862247664,239.9134714735952L243.6992603502777,207.4204112518126L256.3626737921283,223.36636970530185Z" stroke-width="0.35"/><path transform="translate(0,0)" d="M264.805691064891,237.94265186378587L273.6488339464281,274L265.76743186620615,274L263.77818626566295,265.94522023257446L264.44626942126496,237.47433443271203Z" stroke-width="0.35"/><path transform="translate(0,0)" d="M273.6488339464281,274L264.805691064891,237.94265186378587L268.31341587993677,241.3387600561508L284.11138916825445,274Z" stroke-width="0.35"/><path transform="translate(0,0)" d="M311.23049804652675,274L284.11138916825445,274L268.31341587993677,241.3387600561508L300.88232889576693,261.68992840804185L308.87743996790726,269.7516365493818Z" stroke-width="0.35"/><path transform="translate(0,0)" d="M287.1556163383651,241.8657897481458L300.88232889576693,261.68992840804185L268.31341587993677,241.3387600561508L264.805691064891,237.94265186378587L264.44626942126496,237.47433443271203L256.3626737921283,223.36636970530185Z" stroke-width="0.35"/><path transform="translate(0,0)" d="M290.44687470707106,231.31995910272676L287.1556163383651,241.8657897481458L256.3626737921283,223.36636970530185L243.6992603502777,207.4204112518126L226.406855708575,177.34416806121385L215.39659112667158,149.23540408153005L209.4833124009876,131.9213417688173L280.5589110411275,213.90506665124116Z" stroke-width="0.35"/><path transform="translate(0,0)" d="M290.44687470707106,231.31995910272676L302.088916592972,239.52271969955598L308.87743996790726,269.7516365493818L300.88232889576693,261.68992840804185L287.1556163383651,241.8657897481458Z" stroke-width="0.35"/><path transform="translate(0,0)" d="M303.1747550592996,233.71428603602706L302.088916592972,239.52271969955598L290.44687470707106,231.31995910272676L280.5589110411275,213.90506665124116L300.94477353100785,227.9100293783745Z" stroke-width="0.35"/><path transform="translate(0,0)" d="M314.4317528755516,211.09369852661794L300.94477353100785,227.9100293783745L280.5589110411275,213.90506665124116L209.4833124009876,131.9213417688173L176.15177579126114,54.30115149217801L164.86792240603938,5.69768644726426L163.60235907864922,0L195.6766841885669,0L259.35262223782104,101.39607336176618L309.1202826464086,185.45564854154404L314.64753535398125,204.47896933775561L315.0233697816166,209.23920331519452L314.96921333016303,209.76135704897973Z" stroke-width="0.35"/><path transform="translate(0,0)" d="M314.4317528755516,211.09369852661794L310.75770503017986,227.76196665541818L303.1747550592996,233.71428603602706L300.94477353100785,227.9100293783745Z" stroke-width="0.35"/><path transform="translate(0,0)" d="M310.75770503017986,227.76196665541818L315.9556219246084,233.74881235162397L319.43948377367985,274L311.23049804652675,274L308.87743996790726,269.7516365493818L302.088916592972,239.52271969955598L303.1747550592996,233.71428603602706Z" stroke-width="0.35"/><path transform="translate(0,0)" d="M314.4317528755516,211.09369852661794L314.96921333016303,209.76135704897973L320.63818798300457,226.75888288745028L315.9556219246084,233.74881235162397L310.75770503017986,227.76196665541818Z" stroke-width="0.35"/><path transform="translate(0,0)" d="M366.57613507505823,261.3326976889821L371.5747271653074,274L319.43948377367985,274L315.9556219246084,233.74881235162397L320.63818798300457,226.75888288745028L358.4799278716981,254.37284384008092Z" stroke-width="0.35"/><path transform="translate(0,0)" d="M314.96921333016303,209.76135704897973L315.0233697816166,209.23920331519452L358.4799278716981,254.37284384008092L320.63818798300457,226.75888288745028Z" stroke-width="0.35"/><path transform="translate(0,0)" d="M359.7854150920903,234.10072765682864L360.6724035412658,236.77135905656672L366.57613507505823,261.3326976889821L358.4799278716981,254.37284384008092L315.0233697816166,209.23920331519452L314.64753535398125,204.47896933775561L359.7510903960494,234.0354280075447Z" stroke-width="0.35"/><path transform="translate(0,0)" d="M322.144399409688,193.39770995068665L359.5396151507514,233.4385728680846L359.7510903960494,234.0354280075447L314.64753535398125,204.47896933775561L309.1202826464086,185.45564854154404Z" stroke-width="0.35"/><path transform="translate(0,0)" d="M353.1560320002687,206.7470529731404L359.5396151507514,233.4385728680846L322.144399409688,193.39770995068665Z" stroke-width="0.35"/><path transform="translate(0,0)" d="M353.23876819842627,199.7015152416005L353.53502853202417,205.4802895695219L353.1560320002687,206.7470529731404L322.144399409688,193.39770995068665L309.1202826464086,185.45564854154404L259.35262223782104,101.39607336176618Z" stroke-width="0.35"/><path transform="translate(0,0)" d="M196.90411322544142,0L355.7407604888498,193.22042688547006L353.23876819842627,199.7015152416005L259.35262223782104,101.39607336176618L195.6766841885669,0Z" stroke-width="0.35"/><path transform="translate(0,0)" d="M355.7407604888498,193.22042688547006L196.90411322544142,0L252.58442668378012,0L326.30462230529986,58.38193850892401L346.6923934953359,89.13119342492037L374.11067830258895,162.44580582612713L363.8143745153772,188.15586633670665Z" stroke-width="0.35"/><path transform="translate(0,0)" d="M355.7407604888498,193.22042688547006L363.8143745153772,188.15586633670665L365.82174732128874,197.01060299505093L353.53502853202417,205.4802895695219L353.23876819842627,199.7015152416005Z" stroke-width="0.35"/><path transform="translate(0,0)" d="M353.53502853202417,205.4802895695219L365.82174732128874,197.01060299505093L371.3348535393159,200.1758812364716L359.7854150920903,234.10072765682864L359.7510903960494,234.0354280075447L359.5396151507514,233.4385728680846L353.1560320002687,206.7470529731404Z" stroke-width="0.35"/><path transform="translate(0,0)" d="M363.8143745153772,188.15586633670665L374.11067830258895,162.44580582612713L374.22698288280804,162.61202928081065L379.98784678920384,181.6115582629475L376.91934837759527,197.93494327077244L371.3348535393159,200.1758812364716L365.82174732128874,197.01060299505093Z" stroke-width="0.35"/><path transform="translate(0,0)" d="M359.7854150920903,234.10072765682864L371.3348535393159,200.1758812364716L376.91934837759527,197.93494327077244L380.54349686236185,201.76937596208901L360.6724035412658,236.77135905656672Z" stroke-width="0.35"/><path transform="translate(0,0)" d="M360.6724035412658,236.77135905656672L380.54349686236185,201.76937596208901L387.1609613773962,204.40743416624338L447.84146561638426,254.10585061271595L463.46965257630416,274L371.5747271653074,274L366.57613507505823,261.3326976889821Z" stroke-width="0.35"/><path transform="translate(0,0)" d="M376.91934837759527,197.93494327077244L379.98784678920384,181.6115582629475L387.5460421708185,188.99149211095934L387.1609613773962,204.40743416624338L380.54349686236185,201.76937596208901Z" stroke-width="0.35"/><path transform="translate(0,0)" d="M387.1609613773962,204.40743416624338L387.5460421708185,188.99149211095934L414.39152357005634,201.93974924049223L447.84146561638426,254.10585061271595Z" stroke-width="0.35"/><path transform="translate(0,0)" d="M379.98784678920384,181.6115582629475L374.22698288280804,162.61202928081065L380.58257869128255,166.3635664353654L414.1511535914815,201.25505555883885L414.39152357005634,201.93974924049223L387.5460421708185,188.99149211095934Z" stroke-width="0.35"/><path transform="translate(0,0)" d="M414.0700603613008,200.85366772143692L414.1511535914815,201.25505555883885L380.58257869128255,166.3635664353654L403.18658125498956,175.7718538583071Z" stroke-width="0.35"/><path transform="translate(0,0)" d="M374.11067830258895,162.44580582612713L346.6923934953359,89.13119342492037L408.91688608416644,143.30953342780174L413.5641412121105,155.555646365124L414.3321392601388,166.02887421364474L411.0100879689711,170.8832196517863L403.18658125498956,175.7718538583071L380.58257869128255,166.3635664353654L374.22698288280804,162.61202928081065Z" stroke-width="0.35"/><path transform="translate(0,0)" d="M414.0700603613008,200.85366772143692L403.18658125498956,175.7718538583071L411.0100879689711,170.8832196517863L414.41302739454704,187.7206227088234Z" stroke-width="0.35"/><path transform="translate(0,0)" d="M414.41302739454704,187.7206227088234L411.0100879689711,170.8832196517863L414.3321392601388,166.02887421364474L418.6485470501698,171.0673507177714Z" stroke-width="0.35"/><path transform="translate(0,0)" d="M414.0700603613008,200.85366772143692L414.41302739454704,187.7206227088234L418.6485470501698,171.0673507177714L473.71802410156226,197.45739347944402L474.15964747076066,202.43095009095944L474.7169379854902,274L463.46965257630416,274L447.84146561638426,254.10585061271595L414.39152357005634,201.93974924049223L414.1511535914815,201.25505555883885Z" stroke-width="0.35"/><path transform="translate(0,0)" d="M414.3321392601388,166.02887421364474L413.5641412121105,155.555646365124L473.72756192840967,194.00811225040144L473.71802410156226,197.45739347944402L418.6485470501698,171.0673507177714Z" stroke-width="0.35"/><path transform="translate(0,0)" d="M413.5641412121105,155.555646365124L408.91688608416644,143.30953342780174L439.40714850354414,149.38417747601645L461.1728250798483,157.86457921182094L474.81986579753686,181.38602615098299L473.72756192840967,194.00811225040144Z" stroke-width="0.35"/><path transform="translate(0,0)" d="M346.6923934953359,89.13119342492037L326.30462230529986,58.38193850892401L348.23459462202226,65.31368783474812L384.82673904137135,85.12022938270316L434.93121336424036,126.19551200716657L439.40714850354414,149.38417747601645L408.91688608416644,143.30953342780174Z" stroke-width="0.35"/><path transform="translate(0,0)" d="M439.40714850354414,149.38417747601645L434.93121336424036,126.19551200716657L459.37894981250133,136.91423006547006L461.1728250798483,157.86457921182094Z" stroke-width="0.35"/><path transform="translate(0,0)" d="M459.9213498237592,128.49790931954007L460.4266591405706,132.16669067733557L459.37894981250133,136.91423006547006L434.93121336424036,126.19551200716657L384.82673904137135,85.12022938270316L408.18975853338253,94.59808394057998Z" stroke-width="0.35"/><path transform="translate(0,0)" d="M459.9213498237592,128.49790931954007L408.18975853338253,94.59808394057998L462.49752823827373,110.55214431748934Z" stroke-width="0.35"/><path transform="translate(0,0)" d="M384.82673904137135,85.12022938270316L348.23459462202226,65.31368783474812L436.7261772641002,75.65123704720008L470.5112737602201,85.83401684505178L474.0354363473347,91.04062375126217L468.858582119156,104.46491507767446L462.49752823827373,110.55214431748934L408.18975853338253,94.59808394057998Z" stroke-width="0.35"/><path transform="translate(0,0)" d="M326.30462230529986,58.38193850892401L252.58442668378012,0L414.6496257456247,0L468.5947045866909,57.49635643689998L436.7261772641002,75.65123704720008L348.23459462202226,65.31368783474812Z" stroke-width="0.35"/><path transform="translate(0,0)" d="M470.5112737602201,85.83401684505178L436.7261772641002,75.65123704720008L468.5947045866909,57.49635643689998L478.1999547424676,60.07728482362374L479.0648589542826,63.50161333074222Z" stroke-width="0.35"/><path transform="translate(0,0)" d="M504.15962369155795,0L478.1999547424676,60.07728482362374L468.5947045866909,57.49635643689998L414.6496257456247,0Z" stroke-width="0.35"/><path transform="translate(0,0)" d="M459.9213498237592,128.49790931954007L462.49752823827373,110.55214431748934L468.858582119156,104.46491507767446L485.2275691642629,121.60440342422666L460.4266591405706,132.16669067733557Z" stroke-width="0.35"/><path transform="translate(0,0)" d="M484.0539533610407,170.05022730623176L483.76362439393284,170.62520163925035L474.81986579753686,181.38602615098299L461.1728250798483,157.86457921182094L459.37894981250133,136.91423006547006L460.4266591405706,132.16669067733557L485.2275691642629,121.60440342422666L500.9287350517708,125.10447669253102Z" stroke-width="0.35"/><path transform="translate(0,0)" d="M468.858582119156,104.46491507767446L474.0354363473347,91.04062375126217L483.59311024104557,92.4228394074063L487.39343900115455,94.49743787234495L508.6500375855982,118.34117475949891L500.9287350517708,125.10447669253102L485.2275691642629,121.60440342422666Z" stroke-width="0.35"/><path transform="translate(0,0)" d="M470.5112737602201,85.83401684505178L479.0648589542826,63.50161333074222L500.6276198860728,69.710491093927L500.6128035090331,69.76858476014453L483.59311024104557,92.4228394074063L474.0354363473347,91.04062375126217Z" stroke-width="0.35"/><path transform="translate(0,0)" d="M478.1999547424676,60.07728482362374L504.15962369155795,0L528.170691043319,0L533.3143104298597,19.24725954733219L534.6410747094837,28.51878346463768L533.7245331294895,47.205899383423024L500.6276198860728,69.710491093927L479.0648589542826,63.50161333074222Z" stroke-width="0.35"/><path transform="translate(0,0)" d="M483.59311024104557,92.4228394074063L500.6128035090331,69.76858476014453L504.50553451761203,85.90797587035033L487.39343900115455,94.49743787234495Z" stroke-width="0.35"/><path transform="translate(0,0)" d="M508.6500375855982,118.34117475949891L487.39343900115455,94.49743787234495L504.50553451761203,85.90797587035033L532.1412615824039,97.41057867862447L531.4604390271667,99.37176069354527L523.9402752306391,113.4059306511549L521.9398797532181,115.75678272005686Z" stroke-width="0.35"/><path transform="translate(0,0)" d="M532.1412615824039,97.41057867862447L504.50553451761203,85.90797587035033L500.6128035090331,69.76858476014453L500.6276198860728,69.710491093927L533.7245331294895,47.205899383423024L538.2029230785548,63.130179769255925L534.1889081904374,94.14764308346504Z" stroke-width="0.35"/><path transform="translate(0,0)" d="M484.0539533610407,170.05022730623176L500.9287350517708,125.10447669253102L508.6500375855982,118.34117475949891L521.9398797532181,115.75678272005686L530.6582210514447,137.33066733851075Z" stroke-width="0.35"/><path transform="translate(0,0)" d="M484.0539533610407,170.05022730623176L530.6582210514447,137.33066733851075L532.0841753066842,139.35183038879518L530.0563404185414,156.96192897574804L483.76362439393284,170.62520163925035Z" stroke-width="0.35"/><path transform="translate(0,0)" d="M483.76362439393284,170.62520163925035L530.0563404185414,156.96192897574804L531.4507408564308,158.87111658763146L527.84352938004,171.17711699156592L474.15964747076066,202.43095009095944L473.71802410156226,197.45739347944402L473.72756192840967,194.00811225040144L474.81986579753686,181.38602615098299Z" stroke-width="0.35"/><path transform="translate(0,0)" d="M474.7169379854902,274L474.15964747076066,202.43095009095944L527.84352938004,171.17711699156592L534.6553498766359,177.4525860823932L578.065864989952,274Z" stroke-width="0.35"/><path transform="translate(0,0)" d="M527.84352938004,171.17711699156592L531.4507408564308,158.87111658763146L537.4869596219609,162.24604490181696L534.6553498766359,177.4525860823932Z" stroke-width="0.35"/><path transform="translate(0,0)" d="M602,274L578.065864989952,274L534.6553498766359,177.4525860823932L537.4869596219609,162.24604490181696L602,178.4762076173821Z" stroke-width="0.35"/><path transform="translate(0,0)" d="M530.0563404185414,156.96192897574804L532.0841753066842,139.35183038879518L602,154.21824642276087L602,178.4762076173821L537.4869596219609,162.24604490181696L531.4507408564308,158.87111658763146Z" stroke-width="0.35"/><path transform="translate(0,0)" d="M521.9398797532181,115.75678272005686L523.9402752306391,113.4059306511549L602,146.73835727135315L602,154.21824642276087L532.0841753066842,139.35183038879518L530.6582210514447,137.33066733851075Z" stroke-width="0.35"/><path transform="translate(0,0)" d="M602,146.29474865858364L602,146.73835727135315L523.9402752306391,113.4059306511549L531.4604390271667,99.37176069354527Z" stroke-width="0.35"/><path transform="translate(0,0)" d="M532.1412615824039,97.41057867862447L534.1889081904374,94.14764308346504L587.2388973176315,104.93374397355956L602,109.89526602502585L602,146.29474865858364L531.4604390271667,99.37176069354527Z" stroke-width="0.35"/><path transform="translate(0,0)" d="M534.1889081904374,94.14764308346504L538.2029230785548,63.130179769255925L544.0491073548515,65.47484615302447L587.2388973176315,104.93374397355956Z" stroke-width="0.35"/><path transform="translate(0,0)" d="M602,109.89526602502585L587.2388973176315,104.93374397355956L544.0491073548515,65.47484615302447L586.8063119998897,76.46008194558485L590.8016127936019,78.16634690548518L602,88.37122286095693Z" stroke-width="0.35"/><path transform="translate(0,0)" d="M533.7245331294895,47.205899383423024L534.6410747094837,28.51878346463768L564.5088272385495,46.294217210573045L586.8063119998897,76.46008194558485L544.0491073548515,65.47484615302447L538.2029230785548,63.130179769255925Z" stroke-width="0.35"/><path transform="translate(0,0)" d="M590.8016127936019,78.16634690548518L586.8063119998897,76.46008194558485L564.5088272385495,46.294217210573045L584.18850722888,53.88948838545621Z" stroke-width="0.35"/><path transform="translate(0,0)" d="M534.6410747094837,28.51878346463768L533.3143104298597,19.24725954733219L589.3656739023182,41.323716663203584L591.1320472402665,46.22487376448756L584.18850722888,53.88948838545621L564.5088272385495,46.294217210573045Z" stroke-width="0.35"/><path transform="translate(0,0)" d="M528.170691043319,0L569.3226542664652,0L597.6155913511525,29.43187043555651L589.3656739023182,41.323716663203584L533.3143104298597,19.24725954733219Z" stroke-width="0.35"/><path transform="translate(0,0)" d="M602,88.37122286095693L590.8016127936019,78.16634690548518L584.18850722888,53.88948838545621L591.1320472402665,46.22487376448756L602,50.03525999418954Z" stroke-width="0.35"/><path transform="translate(0,0)" d="M602,50.03525999418954L591.1320472402665,46.22487376448756L589.3656739023182,41.323716663203584L597.6155913511525,29.43187043555651L602,30.37963493387414Z" stroke-width="0.35"/><path transform="translate(0,0)" d="M602,0L602,30.37963493387414L597.6155913511525,29.43187043555651L569.3226542664652,0Z" stroke-width="0.35"/></g><g class="mark-group role-legend" role="graphics-symbol" aria-roledescription="legend" aria-label="Symbol legend titled 'symbol' for fill color, stroke color and strokeDash with 1 value: AAPL"><g transform="translate(620,0)"><path class="background" aria-hidden="true" d="M0,0h42v30h-42Z" pointer-events="none"/><g><g class="mark-group role-legend-entry"><g transform="translate(0,17)"><path class="background" aria-hidden="true" d="M0,0h0v0h0Z" pointer-events="none"/><g><g class="mark-group role-scope" role="graphics-object" aria-roledescription="group mark container"><g transform="translate(0,0)"><path class="background" aria-hidden="true" d="M0,0h41.60797119140625v12.5h-41.60797119140625Z" pointer-events="none" opacity="1"/><g><g class="mark-symbol role-legend-symbol" pointer-events="none"><path transform="translate(6,6)" d="M5,0A5,5,0,1,1,-5,0A5,5,0,1,1,5,0" fill="#4c78a8" stroke="#4c78a8" stroke-width="1.5" stroke-dasharray="1,0" opacity="0.7"/></g><g class="mark-text role-legend-label" pointer-events="none"><text text-anchor="start" transform="translate(16,10)" font-family="&quot;Source Sans Pro&quot;, sans-serif" font-size="12px" fill="#31333F" opacity="1">AAPL</text></g></g><path class="foreground" aria-hidden="true" d="" pointer-events="none" display="none"/></g></g></g><path class="foreground" aria-hidden="true" d="" pointer-events="none" display="none"/></g></g><g class="mark-text role-legend-title" pointer-events="none"><text text-anchor="start" transform="translate(0,9)" font-family="&quot;Source Sans Pro&quot;, sans-serif" font-size="12px" font-weight="bold" fill="#31333F" opacity="1">symbol</text></g></g><path class="foreground" aria-hidden="true" d="" pointer-events="none" display="none"/></g></g><g class="mark-group role-title"><g transform="translate(301,-17.7)"><path class="background" aria-hidden="true" d="M0,0h0v0h0Z" pointer-events="none"/><g><g class="mark-text role-title-text" role="graphics-symbol" aria-roledescription="title" aria-label="Title text 'Evolution of stock prices'" pointer-events="none"><text text-anchor="middle" transform="translate(0,10)" font-family="sans-serif" font-size="13px" font-weight="bold" fill="#31333F" opacity="1">Evolution of stock prices</text></g></g><path class="foreground" aria-hidden="true" d="" pointer-events="none" display="none"/></g></g></g><path class="foreground" aria-hidden="true" d="" display="none"/></g></g></g><defs><clipPath id="clip1"><rect x="0" y="0" width="602" height="274"/></clipPath><clipPath id="clip2"><rect x="0" y="0" width="602" height="274"/></clipPath><clipPath id="clip3"><rect x="0" y="0" width="602" height="274"/></clipPath></defs></svg>